# xmcd
# 
# Track frame offsets:
#     150
#     18120
#     37235
#     54133
#     69108
#     80423
#     94395
#     111585
#     128093
#     143605
#     162733
# 
# Disc length: 2351
# 
# Revision: 10
# Processed by: cddbd v1.5.2PL0 Copyright (c) Steve Scherf et al.
# Submitted via: fre:ac v1.0.17
# 
DISCID=90092d0b
DTITLE=Billy Ray Cyrus - It Won't Be the Last
DYEAR=1993
DGENRE=Country
TTITLE0=In the Heart Of A Woman
TTITLE1=Talk Some
TTITLE2=Somebody New
TTITLE3=Only Time Will Tell
TTITLE4=Ain't Your Dog No More
TTITLE5=Words By Heart
TTITLE6=It Won't Be The Last
TTITLE7=Throwin' Stones
TTITLE8=Right Face Wrong Time
TTITLE9=Dreamin' In Color, Livin' In Black And White
TTITLE10=When I'm Gone
EXTD=YEAR: 1993
EXTT0=
EXTT1=
EXTT2=
EXTT3=
EXTT4=
EXTT5=
EXTT6=
EXTT7=
EXTT8=
EXTT9=
EXTT10=
PLAYORDER=
